<?xml version="1.0" encoding="UTF-8"?><svg id="Ebene_2" xmlns="http://www.w3.org/2000/svg" viewBox="0 0 16 13"><defs><style>.cls-1{fill:#fff;}.cls-2{fill:#4854a0;}</style></defs><g id="Ebene_1-2"><g><path class="cls-2" d="M5.69,.98l-.82-.71c-.2-.17-.44-.27-.7-.27H1.13C.51,0,0,.56,0,1.24H0V11.76c0,.69,.51,1.24,1.13,1.24H14.87c.62,0,1.13-.56,1.13-1.24V2.49c0-.69-.51-1.24-1.13-1.24H6.39c-.25,0-.5-.09-.7-.27Z"/><g><path class="cls-1" d="M12.68,4.88c-.47-.47-1.12-.71-1.93-.71-.51,0-.97,.09-1.39,.28-.42,.19-.76,.45-1.03,.79-.22-.35-.51-.62-.89-.8-.37-.18-.8-.27-1.28-.27-.17,0-.34,.02-.5,.04v1.29s.09-.01,.13-.01c.47,0,.82,.14,1.07,.43,.25,.29,.37,.71,.37,1.27v3.5h1.51v-3.27c0-.62,.15-1.1,.46-1.43,.31-.33,.71-.5,1.22-.5,.47,0,.82,.14,1.07,.43s.37,.71,.37,1.27v3.5h1.51v-3.69c0-.94-.24-1.65-.71-2.12Z"/><path class="cls-1" d="M3.61,4.14l-.13-.1s-.07-.04-.11-.04h-.48c-.1,0-.18,.08-.18,.18h0v1.51c0,.1,.08,.18,.18,.18h2.17c.1,0,.18-.08,.18-.18v-1.33c0-.1-.08-.18-.18-.18h-1.34s-.08-.01-.11-.04Z"/><path class="cls-1" d="M3.61,6.53l-.13-.1s-.07-.04-.11-.04h-.48c-.1,0-.18,.08-.18,.18h0v1.51c0,.1,.08,.18,.18,.18h2.17c.1,0,.18-.08,.18-.18v-1.33c0-.1-.08-.18-.18-.18h-1.34s-.08-.01-.11-.04Z"/><path class="cls-1" d="M3.61,8.97l-.13-.1s-.07-.04-.11-.04h-.48c-.1,0-.18,.08-.18,.18h0v1.51c0,.1,.08,.18,.18,.18h2.17c.1,0,.18-.08,.18-.18v-1.33c0-.1-.08-.18-.18-.18h-1.34s-.08-.01-.11-.04Z"/></g></g></g></svg>