<?xml version="1.0" encoding="UTF-8"?><svg id="Ebene_1" xmlns="http://www.w3.org/2000/svg" viewBox="0 0 464 214"><defs><style>.cls-1{fill:#1d90c7;}.cls-2{fill:#4d58a2;}</style></defs><path class="cls-1" d="M169.14,158.11c-3.37-1.86-6.18-4.34-8.42-7.39-4.84,6.26-10.83,11.59-17.69,15.67-6.32,4.33-13.09,7.49-20.33,9.43-10.48,2.81-21.04,2.94-31.68,.39-10.64-2.55-20.33-7.7-29.06-15.42-9.42-8.33-15.97-18.07-19.64-29.2-3.67-11.13-4.25-22.5-1.76-34.12,2.5-11.62,7.96-22.19,16.4-31.73,8.44-9.53,18.25-16.22,29.42-20.05,11.18-3.83,22.49-4.58,33.94-2.23,11.44,2.34,21.88,7.68,31.3,16.02,8.73,7.73,15.04,16.69,18.93,26.88,2.46,6.45,3.84,13.03,4.15,19.72h0c2.18-.99,4.98-1.69,8.07-1.9,3.04-.2,5.86,.1,8.13,.77-.03-1.15-.09-2.29-.18-3.44-.48-.39-.94-.79-1.38-1.22-3.86-3.8-5.79-9.43-5.79-16.9v-9.39c-4.74-10.17-11.6-19.27-20.65-27.28-11.6-10.27-24.53-16.78-38.77-19.56-14.24-2.77-28.25-1.69-42.03,3.22-13.77,4.92-25.95,13.35-36.52,25.29-10.57,11.95-17.48,25.14-20.73,39.57-3.25,14.43-2.63,28.5,1.84,42.18,4.48,13.69,12.52,25.67,24.12,35.94,10.92,9.66,22.99,15.99,36.21,18.98,13.22,3,26.43,2.6,39.62-1.2,13.19-3.79,25.07-10.74,35.65-20.84l22.58,19.97,11.13-12.58-18.85-16.68c-2.85-.57-5.54-1.54-8.02-2.92"/><g><g><path class="cls-2" d="M95.78,101.25c1.26,0,2.48-.19,3.66-.58l-.33-5.88c-.55,.28-1.14,.41-1.77,.41-.77,0-1.36-.22-1.79-.66-.42-.44-.64-1.07-.64-1.89v-22.28h-7.81v22.69c0,2.63,.76,4.65,2.28,6.06,1.52,1.41,3.65,2.12,6.39,2.12Z"/><path class="cls-2" d="M115.27,100.56c1.15-.47,2.14-1.15,2.96-2.06v2.38h7.44v-22.28h-7.81v10.73c0,1.78-.39,3.1-1.17,3.97-.78,.86-1.79,1.29-3.02,1.29s-2.12-.38-2.76-1.15c-.63-.77-.95-1.99-.95-3.66v-11.18h-7.81v12.46c0,3.4,.86,5.95,2.57,7.65,1.71,1.7,4.01,2.55,6.89,2.55,1.29,0,2.51-.23,3.66-.7Z"/><path class="cls-2" d="M138.13,98.66c1.45,1.73,3.65,2.59,6.58,2.59,2.03,0,3.87-.47,5.53-1.42,1.66-.95,2.97-2.3,3.95-4.05,.97-1.75,1.46-3.78,1.46-6.08s-.49-4.32-1.46-6.07c-.97-1.74-2.29-3.08-3.95-4.01-1.66-.93-3.5-1.4-5.53-1.4-2.63,0-4.7,.77-6.21,2.3v-10.15h-7.81v30.5h7.44v-2.22Zm1.56-12.83c.88-.93,2-1.4,3.37-1.4s2.49,.47,3.37,1.4,1.32,2.22,1.32,3.86-.44,2.98-1.32,3.92c-.88,.95-2,1.42-3.37,1.42s-2.49-.47-3.37-1.42c-.88-.95-1.31-2.25-1.31-3.92s.44-2.93,1.31-3.86Z"/><path class="cls-2" d="M101.19,111.46h-8.64c-.26,0-.51-.09-.71-.25l-.84-.66c-.2-.16-.45-.25-.71-.25h-3.1c-.63,0-1.15,.51-1.15,1.15v3.18h-17.73v-13.44c1.02,.17,2.07,.26,3.17,.26,2.63,0,5-.47,7.11-1.4,2.11-.93,3.86-2.27,5.26-4.03l-5.18-4.69c-1.86,2.25-4.13,3.37-6.78,3.37-1.56,0-2.95-.34-4.17-1.03-1.22-.68-2.17-1.65-2.84-2.9-.67-1.24-1.01-2.68-1.01-4.29s.34-3.05,1.01-4.3c.67-1.25,1.62-2.21,2.84-2.9,1.22-.69,2.61-1.03,4.17-1.03,2.66,0,4.92,1.12,6.78,3.37l5.18-4.69c-1.4-1.75-3.15-3.1-5.26-4.03-2.11-.93-4.48-1.4-7.11-1.4-3.02,0-5.72,.64-8.12,1.91-2.4,1.27-4.28,3.05-5.65,5.33-1.37,2.27-2.05,4.85-2.05,7.73s.69,5.45,2.05,7.73c1.37,2.28,3.26,4.05,5.65,5.32,.84,.44,1.71,.81,2.63,1.1v48.29h20.05v3.4c0,.64,.51,1.15,1.15,1.15h13.99c.63,0,1.15-.51,1.15-1.15v-8.56c0-.64-.52-1.15-1.15-1.15h-8.64c-.26,0-.51-.09-.71-.25l-.84-.66c-.2-.16-.45-.24-.71-.24h-3.1c-.63,0-1.15,.51-1.15,1.15v3.35h-17.73v-12.7h17.73v3.32c0,.64,.51,1.15,1.15,1.15h13.99c.63,0,1.15-.51,1.15-1.15v-8.56c0-.63-.52-1.15-1.15-1.15h-8.64c-.26,0-.51-.09-.71-.25l-.84-.66c-.2-.16-.45-.24-.71-.24h-3.1c-.63,0-1.15,.51-1.15,1.15v3.43h-17.73v-12.7h17.73v3.57c0,.64,.51,1.15,1.15,1.15h13.99c.63,0,1.15-.51,1.15-1.15v-8.56c0-.64-.52-1.15-1.15-1.15Z"/></g><g><path class="cls-2" d="M137.87,111.41c-3.27,0-6.25,.61-8.94,1.83-2.7,1.22-4.9,2.92-6.61,5.09-1.4-2.28-3.3-4.01-5.72-5.17-2.41-1.17-5.17-1.75-8.28-1.75-1.11,0-2.17,.1-3.2,.25v8.3c.29-.02,.56-.07,.86-.07,3.01,0,5.31,.92,6.92,2.76,1.61,1.84,2.41,4.58,2.41,8.2v22.55h9.72v-21.08c0-3.99,.99-7.06,2.96-9.22,1.97-2.15,4.59-3.23,7.86-3.23,3.01,0,5.31,.92,6.92,2.76,1.61,1.84,2.41,4.58,2.41,8.2v22.55h.29c3.88-2.47,7.18-5.66,9.43-8.31v-15.49c0-6.07-1.53-10.62-4.59-13.65-3.06-3.03-7.21-4.55-12.44-4.55Z"/><path class="cls-2" d="M239.73,112.54c-2.98,0-5.66,.48-8.03,1.44-2.38,.96-4.35,2.38-5.91,4.24v-5.23h-9.02v40.47h9.47v-20.46c0-3.94,1.01-6.96,3.03-9.06,2.02-2.09,4.77-3.14,8.26-3.14,3.08,0,5.46,.9,7.12,2.69,1.67,1.79,2.5,4.46,2.5,7.99v21.98h9.47v-23.19c0-5.86-1.54-10.28-4.62-13.26s-7.17-4.47-12.28-4.47Z"/><path class="cls-2" d="M196.38,117.92c-1.62-1.77-3.52-3.11-5.72-4.02-2.2-.91-4.61-1.36-7.24-1.36-3.94,0-7.46,.86-10.57,2.58-3.11,1.72-5.53,4.13-7.28,7.24-1.74,3.11-2.62,6.73-2.62,10.88s.87,7.78,2.62,10.91c1.74,3.13,4.17,5.56,7.28,7.27,3.11,1.72,6.63,2.58,10.57,2.58,2.78,0,5.32-.48,7.62-1.44,2.3-.96,4.23-2.4,5.8-4.32v5.23h9.02v-40.47h-9.47v4.93Zm-3.26,24.48c-2.27,2.32-5.15,3.49-8.64,3.49s-6.35-1.16-8.6-3.49c-2.25-2.32-3.37-5.38-3.37-9.17s1.12-6.85,3.37-9.17c2.25-2.32,5.11-3.49,8.6-3.49s6.37,1.16,8.64,3.49c2.27,2.32,3.41,5.38,3.41,9.17s-1.14,6.85-3.41,9.17Z"/><path class="cls-2" d="M297.62,117.92c-1.62-1.77-3.52-3.11-5.72-4.02-2.2-.91-4.61-1.36-7.24-1.36-3.94,0-7.47,.86-10.57,2.58-3.11,1.72-5.53,4.13-7.28,7.24-1.74,3.11-2.62,6.73-2.62,10.88s.87,7.78,2.62,10.91,4.17,5.56,7.28,7.27c3.11,1.72,6.63,2.58,10.57,2.58,2.78,0,5.32-.48,7.61-1.44,2.3-.96,4.23-2.4,5.8-4.32v5.23h9.02v-40.47h-9.47v4.93Zm-3.26,24.48c-2.27,2.32-5.15,3.49-8.64,3.49s-6.35-1.16-8.6-3.49c-2.25-2.32-3.37-5.38-3.37-9.17s1.12-6.85,3.37-9.17c2.25-2.32,5.11-3.49,8.6-3.49s6.37,1.16,8.64,3.49c2.27,2.32,3.41,5.38,3.41,9.17s-1.14,6.85-3.41,9.17Z"/><path class="cls-2" d="M349.15,118.38c-1.62-1.97-3.63-3.43-6.02-4.4-2.4-.96-5.07-1.44-8-1.44-3.84,0-7.31,.81-10.42,2.42-3.11,1.62-5.56,3.9-7.35,6.86-1.79,2.96-2.69,6.35-2.69,10.19s.9,7.25,2.69,10.23c1.79,2.98,4.24,5.29,7.35,6.93,3.11,1.64,6.58,2.46,10.42,2.46,2.78,0,5.33-.45,7.66-1.36,2.32-.91,4.29-2.25,5.91-4.02v2.12c0,4.14-1.04,7.23-3.11,9.25-2.07,2.02-5.33,3.03-9.77,3.03-2.78,0-5.52-.44-8.22-1.32-2.7-.89-4.94-2.06-6.71-3.52l-4.25,7.12c2.28,1.87,5.15,3.29,8.64,4.28,3.49,.99,7.17,1.48,11.06,1.48,14.55,0,21.83-7.12,21.83-21.37v-34.33h-9.02v5.38Zm-3.75,22.02c-2.3,2.15-5.24,3.22-8.83,3.22s-6.61-1.07-8.9-3.22c-2.3-2.15-3.45-4.94-3.45-8.38s1.15-6.14,3.45-8.26c2.3-2.12,5.27-3.18,8.9-3.18s6.53,1.06,8.83,3.18c2.3,2.12,3.45,4.88,3.45,8.26s-1.15,6.23-3.45,8.38Z"/><path class="cls-2" d="M404.32,122.05c-1.82-3.06-4.28-5.41-7.39-7.05-3.11-1.64-6.55-2.46-10.34-2.46-3.99,0-7.57,.89-10.72,2.65-3.16,1.77-5.63,4.23-7.43,7.39-1.79,3.16-2.69,6.71-2.69,10.65s.92,7.57,2.77,10.72c1.84,3.16,4.46,5.62,7.84,7.39,3.38,1.77,7.3,2.65,11.75,2.65,3.49,0,6.62-.56,9.4-1.67s5.05-2.75,6.82-4.92l-5-5.84c-2.93,2.93-6.59,4.4-10.99,4.4-2.98,0-5.53-.61-7.65-1.82-2.12-1.21-3.66-2.98-4.62-5.3l30.99-6.06c0-4.09-.91-7.66-2.73-10.72Zm-29.4,10.72v-.08c0-3.84,1.07-6.9,3.22-9.17,2.15-2.27,4.96-3.41,8.45-3.41,2.83,0,5.24,.76,7.24,2.27,1.99,1.52,3.32,3.51,3.98,5.99l-22.89,4.4Z"/><path class="cls-2" d="M423.64,118.91v-5.91h-9.02v40.47h9.47v-19.63c0-4.04,1.03-7.14,3.11-9.28,2.07-2.15,4.95-3.22,8.64-3.22,.66,0,1.39,.08,2.2,.23v-9.02c-6.87,0-11.67,2.12-14.4,6.37Z"/></g><path class="cls-1" d="M241.82,55.31v49.64h-13.2v-6.48l-.54,.6c-1.89,2.13-4.18,3.79-6.8,4.91-2.63,1.14-5.51,1.7-8.57,1.7-6.48,0-11.68-1.89-15.46-5.6-3.79-3.72-5.71-9.34-5.71-16.69v-28.08h13.96v25.95c0,8.26,3.53,12.44,10.49,12.44,3.56,0,6.46-1.18,8.63-3.5,2.17-2.32,3.26-5.8,3.26-10.35v-24.54h13.96Z"/><path class="cls-1" d="M314.15,87.56l10.78,5.88c-1.77,3.78-4.59,6.79-8.38,8.94-3.89,2.21-8.51,3.32-13.71,3.32s-10.09-1.11-14.29-3.27c-4.19-2.18-7.51-5.24-9.87-9.09-2.35-3.85-3.55-8.29-3.55-13.19s1.2-9.35,3.55-13.2c2.36-3.85,5.68-6.91,9.87-9.09,4.21-2.17,9.01-3.27,14.29-3.27s9.83,1.11,13.71,3.27c3.79,2.12,6.62,5.17,8.4,9.07l-10.79,5.8c-2.66-4.53-6.49-6.82-11.41-6.82-3.87,0-7.12,1.29-9.66,3.84-2.53,2.53-3.82,6.03-3.82,10.39s1.29,7.86,3.82,10.39c2.53,2.53,5.79,3.82,9.66,3.82,4.97,0,8.81-2.29,11.41-6.8"/></g><polygon class="cls-1" points="385.21 104.95 368.35 104.95 352.56 85.36 352.35 85.1 352.1 85.33 345.1 92.24 345.01 92.33 345.01 104.95 331.05 104.95 331.05 36.27 345.01 36.27 345.01 75.9 345.53 75.41 366.73 55.31 383.24 55.31 362.83 76.09 362.65 76.29 362.82 76.5 385.21 104.95"/><path class="cls-1" d="M420.95,90.47c-2.46,2.58-5.62,3.88-9.43,3.88s-6.99-1.31-9.46-3.88c-2.47-2.57-3.73-6.05-3.73-10.33s1.26-7.78,3.73-10.35c2.47-2.58,5.65-3.89,9.46-3.89s6.97,1.31,9.43,3.89c2.44,2.56,3.67,6.05,3.67,10.35s-1.23,7.77-3.67,10.33m14.31-23.54c-2.32-3.85-5.59-6.91-9.69-9.09-4.1-2.17-8.83-3.27-14.05-3.27s-9.95,1.1-14.1,3.27c-4.13,2.18-7.42,5.24-9.73,9.09s-3.5,8.29-3.5,13.2,1.18,9.33,3.5,13.19c2.33,3.85,5.6,6.91,9.73,9.09,4.13,2.17,8.88,3.27,14.1,3.27s9.95-1.1,14.05-3.27c4.1-2.18,7.37-5.24,9.69-9.09,2.33-3.85,3.5-8.29,3.5-13.19s-1.17-9.35-3.5-13.2"/><rect class="cls-1" x="253.36" y="55.31" width="13.96" height="49.64"/><path class="cls-1" d="M269.08,39.61c0,2.33-.81,4.28-2.43,5.8-1.61,1.52-3.73,2.29-6.33,2.29s-4.71-.75-6.33-2.24c-1.61-1.49-2.43-3.36-2.43-5.57s.81-4.07,2.43-5.56c1.61-1.5,3.75-2.26,6.33-2.26s4.71,.72,6.34,2.17c1.6,1.43,2.41,3.24,2.41,5.37"/></svg>