<?xml version="1.0" encoding="UTF-8"?><svg id="Ebene_1" xmlns="http://www.w3.org/2000/svg" xmlns:xlink="http://www.w3.org/1999/xlink" viewBox="0 0 642 450"><defs><style>.cls-1{fill:#ecb4ad;}.cls-2{fill:#e6e6f4;}.cls-3{fill:#7f516c;}.cls-4{fill:#c38f95;}.cls-5{fill:#c1c5ec;}.cls-6{fill:#156d99;}.cls-7{fill:#1d5d78;}.cls-8{fill:#1d90c7;}.cls-9{fill:#1c8fc7;}.cls-10{fill:#6c80c4;}.cls-11{fill:#6472b5;}.cls-12{fill:#4d58a2;}.cls-13{fill:url(#Unbenannter_Verlauf_19);}.cls-14{fill:url(#Unbenannter_Verlauf_10);}</style><linearGradient id="Unbenannter_Verlauf_10" x1="332.51" y1="426.96" x2="332.51" y2="384.74" gradientUnits="userSpaceOnUse"><stop offset=".15" stop-color="#fff" stop-opacity="0"/><stop offset=".89" stop-color="#4d58a2"/></linearGradient><linearGradient id="Unbenannter_Verlauf_19" x1="299.79" y1="188.05" x2="372.78" y2="350.33" gradientUnits="userSpaceOnUse"><stop offset="0" stop-color="#f3cbcb"/><stop offset=".04" stop-color="#f2cac9"/><stop offset=".62" stop-color="#edb9b4"/><stop offset="1" stop-color="#ecb4ad"/></linearGradient></defs><g><polygon class="cls-11" points="16.47 376.85 169.31 318.69 165.01 281.07 16.47 376.85"/><polygon class="cls-11" points="16.47 376.85 169.72 361.22 177.01 333.39 16.47 376.85"/><polygon class="cls-5" points="16.47 376.85 223.61 329.31 188.11 298.06 16.47 376.85"/><polygon class="cls-5" points="16.47 376.85 170.73 282.76 143.03 258.38 16.47 376.85"/><polygon class="cls-6" points="467.56 92.38 474.07 50.1 337.47 33.84 467.56 92.38"/><polygon class="cls-7" points="459.43 54.98 467.56 92.38 415.52 69.61 459.43 54.98"/><polygon class="cls-9" points="400.89 74.49 459.43 54.98 337.47 33.84 400.89 74.49"/><polygon class="cls-9" points="474.07 50.1 511.47 38.72 337.47 33.84 474.07 50.1"/><g><path class="cls-9" d="M552.54,253.9c-.7-.97-2.11-1.28-3.15-.68l-83.71,47.84c-1.04,.59-2.09,2.02-2.35,3.19l-17.88,80.95c-.26,1.17,.48,2.32,1.65,2.58l141.17,30.77c1.17,.25,2.33-.49,2.6-1.65l18.53-81.19c.27-1.17-.09-2.9-.78-3.87l-56.08-77.93Z"/><path class="cls-6" d="M526.74,360.65c.38-.11,.93,0,1.23,.27l60.02,53.08c.3,.26,.31,.26,.02-.02l-59.39-56.9c-.29-.28-.83-.4-1.21-.27l-79.04,27.03c-.38,.13-.37,.14,.01,.03l78.35-23.22Z"/><path class="cls-2" d="M492.79,249.97c-1.95-.41-3.87,.83-4.29,2.78l-12.29,56.57c-.42,1.95,51.63,45.64,51.63,45.64l69.73-19.42,12.86-56.87c.41-1.95-.83-3.87-2.78-4.28l-114.85-24.41Z"/><path class="cls-5" d="M562.02,277.5c-1.96-.42-3.89,.84-4.31,2.8-.42,1.96,.84,3.89,2.8,4.31l34.67,7.37c1.96,.42,3.89-.84,4.31-2.8,.42-1.96-.84-3.89-2.8-4.31l-34.67-7.37Z"/><path class="cls-5" d="M501.72,285.83c-1.23-.26-2.45,.53-2.71,1.76-.26,1.24,.53,2.45,1.76,2.71l82.23,17.48c1.23,.26,2.45-.52,2.71-1.76,.26-1.24-.53-2.45-1.76-2.71l-82.23-17.48Z"/><path class="cls-5" d="M499.82,295.85c-1.23-.26-2.45,.53-2.71,1.76-.26,1.24,.53,2.45,1.76,2.71l82.23,17.48c1.23,.26,2.45-.52,2.71-1.76,.26-1.24-.53-2.45-1.76-2.71l-82.23-17.48Z"/><path class="cls-5" d="M497.32,306.34c-1.23-.26-2.45,.53-2.71,1.76-.26,1.24,.53,2.45,1.76,2.71l82.23,17.48c1.23,.26,2.45-.52,2.71-1.76,.26-1.24-.53-2.45-1.76-2.71l-82.22-17.48Z"/><path class="cls-6" d="M465.73,302.11c-.31-.25-.31-.25,0,0l62.49,52.82c.3,.26,.86,.38,1.25,.27l77.9-22.32c.38-.11,.38-.11,0-.01l-77.68,20.74c-.39,.1-.95-.02-1.26-.27l-62.69-51.24Z"/></g></g><g><ellipse class="cls-14" cx="332.51" cy="409.52" rx="86.04" ry="11.46"/><g><ellipse class="cls-1" cx="373.32" cy="358.48" rx="13.53" ry="13.13"/><ellipse class="cls-1" cx="361.58" cy="352.04" rx="5.67" ry="5.5"/></g><ellipse class="cls-13" cx="331.86" cy="259.36" rx="88.97" ry="76.34"/><path class="cls-8" d="M305.6,254.98c-16.04,1.28-35.44,2.58-51.42,2.87-15.79,1.33-29.86-11.09-30.17-26.88-.02-1.59-.13-6.07-.15-7.73-.13-6.53-.48-24.15-.62-30.91-.02-1.64-.15-6.12-.17-7.73-.73-9.63,4.06-19.41,12.42-24.31,3.67-2.18,7.88-3.41,12.09-3.61,13.73-.46,27.45-1.09,41.16-1.78,2.03-.08,11.24-.71,13.13-.67,11.78-.17,22.56,8.8,24.72,20.48,.55,3.13,.74,7.64,1.07,10.83,.55,6.5,2.14,24.07,2.75,30.8,.13,1.64,.56,6.09,.69,7.7,2.11,15.5-9.88,29.96-25.5,30.93h0Zm-.81-15.4c7.12,0,13.16-6.42,12.94-13.55-.05-2.29-.1-6.68-.14-9.02-.1-6.83-.34-24.31-.47-30.92-.04-1.64-.1-6.12-.16-7.73,.07-8.12-7.04-15.31-15.18-15.28-1.37,0-10.99,.46-12.59,.55-13.71,.75-27.42,1.54-41.12,2.52-6.57,.42-12.36,5.43-13.75,11.82-.43,1.96-.35,4.05-.15,6.04,.14,1.59,.49,6.05,.64,7.7,.58,6.81,2.04,24.23,2.6,30.8,.16,1.63,.5,6.11,.65,7.7,.43,5.01,3.86,9.63,8.53,11.2,2.14,.86,4.5,.89,6.77,.67,0,0,10.27-.75,10.27-.75,11.89-.9,29.07-1.48,41.16-1.77h0Z"/><path class="cls-8" d="M411.99,258.03c-17.04-.51-34.4-1.62-51.4-3.1-15.74-.42-28.43-14.4-26.92-30.05,.16-1.58,.54-6.05,.69-7.7,.59-6.5,2.16-24.06,2.76-30.79,.16-1.64,.53-6.1,.68-7.7,.32-9.69,6.18-18.96,15.1-22.92,3.9-1.81,8.27-2.57,12.52-2.3,13.69,1.04,27.4,1.96,41.11,2.75,2.04,.15,11.26,.57,13.14,.8,11.89,1.14,21.79,11.46,22.57,23.48,.19,3.2-.12,7.69-.17,10.93-.2,6.53-.67,24.15-.84,30.9-.06,1.64-.15,6.12-.21,7.73,.3,15.71-13.33,28.78-29.03,27.95h0Zm.94-15.59c7,.77,13.63-4.89,14.18-11.92,.2-2.28,.62-6.65,.84-8.98,.64-6.8,2.3-24.2,2.89-30.78,.13-1.63,.57-6.1,.7-7.7,.95-7.8-5.12-15.61-13.05-16.5-10.74-.88-22.4-1.48-33.11-2.08-6.85-.4-13.71-.74-20.57-1.04-5.17-.22-10.33,2.32-13.14,6.65-1.92,2.74-2.59,6-2.57,9.29-.04,1.59-.21,6.07-.26,7.72-.22,6.83-.78,24.29-.98,30.9-.03,1.64-.2,6.12-.24,7.72-.14,5.04,2.75,10.04,7.21,12.15,2.04,1.08,4.4,1.38,6.68,1.42,0,0,10.29,.43,10.29,.43,13.73,.46,27.42,1.54,41.11,2.71h0Z"/><rect class="cls-12" x="274.53" y="205.11" width="10.53" height="18.95" rx="5.26" ry="5.26"/><rect class="cls-12" x="350.62" y="216.6" width="10.53" height="18.95" rx="5.26" ry="5.26"/><path class="cls-5" d="M337.23,358.14h-11.25c-2.89,0-5.43-1.46-6.19-3.56l-2.82-7.76c-1.11-3.07,1.96-6.1,6.19-6.1h16.89c4.23,0,7.31,3.03,6.19,6.1l-2.82,7.76c-.76,2.1-3.3,3.56-6.19,3.56Z"/><path class="cls-5" d="M349.48,402.43l-14.24,8.89c-2.14,1.34-5.14,1.34-7.28,0l-14.24-8.89c-1.65-1.03-2.5-2.67-2.24-4.33l9.46-32.9c.37-2.38,2.89-4.16,5.88-4.16h9.55c2.99,0,5.51,1.78,5.88,4.16l9.46,32.9c.26,1.66-.59,3.31-2.24,4.33Z"/><path class="cls-10" d="M398.17,200.7c-1.37,0-2.73-.63-3.6-1.83-.03-.03-2.89-3.92-6.36-6.5-2.86-2.12-6.66-3.27-6.7-3.29-2.35-.7-3.69-3.18-3-5.53,.7-2.35,3.16-3.7,5.52-3,.54,.16,5.4,1.64,9.48,4.68,4.58,3.4,8.1,8.2,8.25,8.4,1.45,1.99,1.01,4.77-.98,6.22-.79,.57-1.71,.85-2.61,.85Z"/><path class="cls-10" d="M267.89,197.4c-.59,0-1.18-.12-1.76-.36-2.25-.97-3.3-3.58-2.33-5.83,.22-.52,2.27-5.16,5.76-8.86,3.92-4.15,9.1-7.08,9.32-7.2,2.14-1.2,4.85-.44,6.06,1.7s.44,4.86-1.7,6.06c-.04,.02-4.23,2.41-7.2,5.55-2.44,2.59-4.04,6.23-4.05,6.26-.73,1.68-2.37,2.69-4.09,2.69Z"/><path class="cls-3" d="M309.44,296.55c-1.27-.06-1.38-2.06-.11-2.07,42.31-.41,50.3-13.26,74.98-29.49,4.16-2.74-6.04,46.24-19,49.32-11.69,2.78-29.59-16.56-55.87-17.75Z"/><g><path class="cls-4" d="M308.58,398.44c-.62,4.65-20.62,4.32-22.96,.91-.67-.99-.1-2.09,.37-2.95,3.4-5.54,21.76-5.5,22.59,2.04h0Zm-1.26,0c-.31-4.01-6.03-5.53-9.44-5.66-3.69-.13-10.56,1.11-11.2,5.46,0,.1-.01,.25,.01,.2,.08,.09,.24,.21,.47,.31,4.73,1.48,10.13,.93,15.07,.85,1.68-.17,3.78-.11,5.09-1.17h0Z"/><path class="cls-1" d="M308.8,398.02c0,2.04-23.65,2.04-23.65,0,0-3.46,5.29-6.26,11.83-6.26s11.83,2.8,11.83,6.26Z"/></g><g><path class="cls-4" d="M377.7,398.44c-.62,4.65-20.62,4.32-22.96,.91-.67-.99-.1-2.09,.37-2.95,3.4-5.54,21.76-5.5,22.59,2.04h0Zm-1.26,0c-.31-4.01-6.03-5.53-9.44-5.66-3.69-.13-10.56,1.11-11.2,5.46,0,.1-.01,.25,.01,.2,.08,.09,.24,.21,.47,.31,4.73,1.48,10.13,.93,15.07,.85,1.68-.17,3.78-.11,5.09-1.17h0Z"/><path class="cls-1" d="M377.92,398.02c0,2.04-23.65,2.04-23.65,0,0-3.46,5.29-6.26,11.83-6.26s11.83,2.8,11.83,6.26Z"/></g><path class="cls-5" d="M285.07,209.86h0l-4.25,1.49c-.63,.22-.74,.76-.23,1.2l3.57,3.14c.5,.44,.91,.26,.91-.41v-5.42Z"/><path class="cls-5" d="M361.15,221.41h0l-4.25,1.49c-.63,.22-.74,.76-.23,1.2l3.57,3.14c.5,.44,.91,.26,.91-.41v-5.42Z"/><g><ellipse class="cls-1" cx="270.4" cy="348.79" rx="14.89" ry="14.46"/><circle class="cls-1" cx="285.87" cy="342.9" r="6.13"/><circle class="cls-1" cx="262.54" cy="333.57" r="6.13"/><circle class="cls-1" cx="252.54" cy="343.24" r="6.13"/><circle class="cls-1" cx="254.87" cy="355.9" r="6.13"/></g></g></svg>