<?xml version="1.0" encoding="utf-8"?>
<!-- Generator: Adobe Illustrator 27.0.1, SVG Export Plug-In . SVG Version: 6.00 Build 0)  -->
<svg version="1.1" id="Ebene_2_00000007392392665591560200000002691246783258720644_"
	 xmlns="http://www.w3.org/2000/svg" xmlns:xlink="http://www.w3.org/1999/xlink" x="0px" y="0px" viewBox="0 0 270.9 109.9"
	 style="enable-background:new 0 0 270.9 109.9;" xml:space="preserve">
<style type="text/css">
	.st0{fill:#C1C5EC;}
</style>
<g id="Ebene_1-2">
	<g>
		<path class="st0" d="M79.7,68.5v14.7h0.2c2.5-1.6,4.7-3.7,6.1-5.4V67.7c0-4-1-6.9-3-8.9c-2-2-4.7-3-8.1-3c-2.1,0-4.1,0.4-5.8,1.2
			c-1.8,0.8-3.2,1.9-4.3,3.3c-0.9-1.5-2.2-2.6-3.7-3.4s-3.4-1.1-5.4-1.1c-0.7,0-1.4,0.1-2.1,0.2v5.4c0.2,0,0.4,0,0.6,0
			c2,0,3.5,0.6,4.5,1.8c1,1.2,1.6,3,1.6,5.3v14.7h6.3V69.5c0-2.6,0.6-4.6,1.9-6c1.3-1.4,3-2.1,5.1-2.1c2,0,3.5,0.6,4.5,1.8
			S79.7,66.2,79.7,68.5L79.7,68.5z"/>
		<path class="st0" d="M95.3,86.3c-2.2-1.2-4-2.8-5.5-4.8c-3.2,4.1-7.1,7.6-11.5,10.2c-4.1,2.8-8.5,4.9-13.2,6.2
			c-6.8,1.8-13.7,1.9-20.6,0.2c-6.9-1.7-13.2-5-18.9-10.1c-6.1-5.4-10.4-11.8-12.8-19s-2.8-14.7-1.1-22.2
			c1.6-7.6,5.2-14.5,10.7-20.7c5.5-6.2,11.9-10.6,19.2-13.1s14.7-3,22.1-1.5c7.4,1.5,14.2,5,20.4,10.4c5.7,5,9.8,10.9,12.3,17.5
			c1.6,4.2,2.5,8.5,2.7,12.9l0,0c1.4-0.7,3.2-1.1,5.3-1.2c2-0.1,3.8,0.1,5.3,0.5c0-0.8-0.1-1.5-0.1-2.2c-0.3-0.2-0.6-0.5-0.9-0.8
			c-2.5-2.5-3.8-6.1-3.8-11v-6.1c-3.1-6.6-7.6-12.5-13.4-17.8C83.7,7,75.3,2.8,66,1c-9.3-1.8-18.4-1.1-27.4,2.1s-16.9,8.7-23.8,16.5
			S3.5,35.9,1.3,45.3c-2.1,9.4-1.7,18.6,1.2,27.5s8.1,16.7,15.7,23.4c7.1,6.3,15,10.4,23.6,12.4s17.2,1.7,25.8-0.8
			c8.6-2.5,16.3-7,23.2-13.6l14.7,13l7.2-8.2l-12.3-10.9C98.7,87.8,96.9,87.2,95.3,86.3L95.3,86.3z"/>
		<g>
			<g>
				<g>
					<path class="st0" d="M26.4,48.1c-1.6-0.8-2.8-2-3.7-3.5c-0.9-1.5-1.3-3.2-1.3-5s0.5-3.5,1.3-5s2.1-2.6,3.7-3.5s3.3-1.2,5.3-1.2
						c1.7,0,3.3,0.3,4.6,0.9c1.4,0.6,2.5,1.5,3.4,2.6l-3.4,3c-1.2-1.5-2.7-2.2-4.4-2.2c-1,0-1.9,0.2-2.7,0.7
						c-0.8,0.5-1.4,1.1-1.9,1.9c-0.4,0.8-0.7,1.8-0.7,2.8s0.2,2,0.7,2.8c0.4,0.8,1,1.4,1.9,1.9C30.1,44.7,31,45,32,45
						c1.7,0,3.2-0.7,4.4-2.2l3.4,3c-0.9,1.1-2,2-3.4,2.6c-1.4,0.6-2.9,0.9-4.6,0.9C29.8,49.3,28,48.9,26.4,48.1L26.4,48.1z"/>
					<path class="st0" d="M43.4,47.8c-1-0.9-1.5-2.2-1.5-4V29.1H47v14.5c0,0.5,0.1,1,0.4,1.2s0.7,0.4,1.2,0.4c0.4,0,0.8-0.1,1.2-0.3
						l0.2,3.8c-0.8,0.2-1.6,0.4-2.4,0.4C45.7,49.2,44.4,48.8,43.4,47.8L43.4,47.8z"/>
					<path class="st0" d="M67,34.5V49h-4.8v-1.5c-0.5,0.6-1.2,1-1.9,1.3s-1.5,0.5-2.4,0.5c-1.9,0-3.4-0.5-4.5-1.7s-1.7-2.8-1.7-5
						v-8.1h5.1v7.3c0,1.1,0.2,1.9,0.6,2.4s1,0.8,1.8,0.8s1.5-0.3,2-0.8c0.5-0.6,0.8-1.4,0.8-2.6v-7L67,34.5L67,34.5z"/>
					<path class="st0" d="M83,35.1c1.1,0.6,1.9,1.5,2.6,2.6s0.9,2.5,0.9,4s-0.3,2.8-0.9,4s-1.5,2-2.6,2.6s-2.3,0.9-3.6,0.9
						c-1.9,0-3.3-0.6-4.3-1.7V49h-4.8V29.1h5.1v6.6c1-1,2.3-1.5,4-1.5C80.7,34.2,81.9,34.5,83,35.1z M80.5,44.3
						c0.6-0.6,0.9-1.5,0.9-2.6s-0.3-1.9-0.9-2.5s-1.3-0.9-2.2-0.9s-1.6,0.3-2.2,0.9c-0.6,0.6-0.9,1.5-0.9,2.5s0.3,1.9,0.9,2.6
						c0.6,0.6,1.3,0.9,2.2,0.9S79.9,44.9,80.5,44.3z"/>
				</g>
				<g>
					<rect x="29.3" y="58" class="st0" width="14.6" height="1.9"/>
					<rect x="29.3" y="68.2" class="st0" width="14.6" height="1.9"/>
					<rect x="29.3" y="78.3" class="st0" width="14.6" height="1.9"/>
				</g>
				<rect x="28.1" y="48.1" class="st0" width="1.5" height="32.2"/>
				<path class="st0" d="M45,55.7l-0.5-0.4c-0.1-0.1-0.3-0.2-0.5-0.2h-2c-0.4,0-0.8,0.3-0.8,0.8l0,0v6.3c0,0.4,0.3,0.8,0.8,0.8h9.1
					c0.4,0,0.8-0.3,0.8-0.8v-5.6c0-0.4-0.3-0.8-0.8-0.8h-5.6C45.3,55.9,45.1,55.8,45,55.7L45,55.7z"/>
				<path class="st0" d="M45,65.8l-0.5-0.4c-0.1-0.1-0.3-0.2-0.5-0.2h-2c-0.4,0-0.8,0.3-0.8,0.8l0,0v6.3c0,0.4,0.3,0.8,0.8,0.8h9.1
					c0.4,0,0.8-0.3,0.8-0.8v-5.6c0-0.4-0.3-0.8-0.8-0.8h-5.6C45.3,65.9,45.1,65.9,45,65.8L45,65.8z"/>
				<path class="st0" d="M45,76l-0.5-0.4c-0.1-0.1-0.3-0.2-0.5-0.2h-2c-0.4,0-0.8,0.3-0.8,0.8l0,0v6.3c0,0.4,0.3,0.8,0.8,0.8h9.1
					c0.4,0,0.8-0.3,0.8-0.8v-5.6c0-0.4-0.3-0.8-0.8-0.8h-5.6C45.3,76.2,45.1,76.1,45,76L45,76z"/>
			</g>
			<g>
				<path class="st0" d="M149.3,59.5c2,1.9,3,4.8,3,8.6v15.1h-6.2V68.9c0-2.3-0.5-4-1.6-5.2c-1.1-1.2-2.6-1.8-4.6-1.8
					c-2.3,0-4.1,0.7-5.4,2.1s-2,3.3-2,5.9v13.3h-6.2V56.9h5.9v3.4c1-1.2,2.3-2.1,3.9-2.8s3.3-0.9,5.2-0.9
					C144.6,56.6,147.3,57.6,149.3,59.5L149.3,59.5z"/>
				<path class="st0" d="M119.2,56.9v26.4h-5.9v-3.4c-1,1.2-2.3,2.2-3.8,2.8c-1.5,0.6-3.2,0.9-5,0.9c-2.6,0-4.9-0.6-6.9-1.7
					c-2-1.1-3.6-2.7-4.7-4.7c-1.1-2-1.7-4.4-1.7-7.1S91.9,65,93,63c1.1-2,2.7-3.6,4.7-4.7c2-1.1,4.3-1.7,6.9-1.7
					c1.7,0,3.3,0.3,4.7,0.9s2.7,1.5,3.7,2.6v-3.2H119.2z M110.9,76c1.5-1.5,2.2-3.5,2.2-6s-0.7-4.5-2.2-6c-1.5-1.5-3.4-2.3-5.6-2.3
					s-4.1,0.8-5.6,2.3s-2.2,3.5-2.2,6s0.7,4.5,2.2,6c1.5,1.5,3.3,2.3,5.6,2.3S109.5,77.5,110.9,76z"/>
				<path class="st0" d="M185.2,56.9v26.4h-5.9v-3.4c-1,1.2-2.3,2.2-3.8,2.8c-1.5,0.6-3.1,0.9-5,0.9c-2.6,0-4.9-0.6-6.9-1.7
					c-2-1.1-3.6-2.7-4.7-4.7c-1.1-2-1.7-4.4-1.7-7.1s0.6-5.1,1.7-7.1c1.1-2,2.7-3.6,4.7-4.7c2-1.1,4.3-1.7,6.9-1.7
					c1.7,0,3.3,0.3,4.7,0.9c1.4,0.6,2.7,1.5,3.7,2.6v-3.2H185.2z M176.9,76c1.5-1.5,2.2-3.5,2.2-6s-0.7-4.5-2.2-6
					c-1.5-1.5-3.4-2.3-5.6-2.3s-4.1,0.8-5.6,2.3s-2.2,3.5-2.2,6s0.7,4.5,2.2,6c1.5,1.5,3.3,2.3,5.6,2.3S175.4,77.5,176.9,76z"/>
				<path class="st0" d="M218.4,56.9v22.4c0,9.3-4.7,13.9-14.2,13.9c-2.5,0-4.9-0.3-7.2-1s-4.1-1.6-5.6-2.8l2.8-4.6
					c1.1,0.9,2.6,1.7,4.4,2.3c1.8,0.6,3.6,0.9,5.4,0.9c2.9,0,5-0.7,6.4-2c1.4-1.3,2-3.3,2-6v-1.4c-1.1,1.2-2.3,2-3.9,2.6
					c-1.5,0.6-3.2,0.9-5,0.9c-2.5,0-4.8-0.5-6.8-1.6c-2-1.1-3.6-2.6-4.8-4.5s-1.8-4.2-1.8-6.7s0.6-4.7,1.8-6.6s2.8-3.4,4.8-4.5
					c2-1,4.3-1.6,6.8-1.6c1.9,0,3.6,0.3,5.2,0.9c1.6,0.6,2.9,1.6,3.9,2.9v-3.5L218.4,56.9L218.4,56.9z M210.1,74.7
					c1.5-1.4,2.2-3.2,2.2-5.4s-0.8-4-2.2-5.4s-3.4-2.1-5.8-2.1s-4.3,0.7-5.8,2.1s-2.2,3.2-2.2,5.4s0.8,4.1,2.2,5.4
					c1.5,1.4,3.4,2.1,5.8,2.1S208.6,76.1,210.1,74.7z"/>
				<path class="st0" d="M245.2,75.5l3.3,3.8c-1.1,1.4-2.6,2.5-4.4,3.2c-1.8,0.7-3.9,1.1-6.1,1.1c-2.9,0-5.4-0.6-7.6-1.7
					s-3.9-2.8-5.1-4.8c-1.2-2.1-1.8-4.4-1.8-7s0.6-4.9,1.8-6.9s2.8-3.7,4.8-4.8s4.4-1.7,7-1.7s4.7,0.5,6.7,1.6s3.6,2.6,4.8,4.6
					s1.8,4.3,1.8,7l-20.2,3.9c0.6,1.5,1.6,2.7,3,3.5c1.4,0.8,3,1.2,5,1.2C240.9,78.3,243.3,77.4,245.2,75.5L245.2,75.5z M231.4,63.7
					c-1.4,1.5-2.1,3.5-2.1,6v0.1l14.9-2.9c-0.4-1.6-1.3-2.9-2.6-3.9s-2.9-1.5-4.7-1.5C234.7,61.5,232.8,62.3,231.4,63.7L231.4,63.7z
					"/>
				<path class="st0" d="M270.4,56.6v5.9c-0.5-0.1-1-0.2-1.4-0.2c-2.4,0-4.3,0.7-5.6,2.1s-2,3.4-2,6.1v12.8h-6.2V56.9h5.9v3.8
					C262.8,58,266,56.6,270.4,56.6L270.4,56.6z"/>
			</g>
		</g>
		<path class="st0" d="M142.6,19.3v32.3H134v-4.2l-0.4,0.4c-1.2,1.4-2.7,2.5-4.4,3.2c-1.7,0.7-3.6,1.1-5.6,1.1
			c-4.2,0-7.6-1.2-10.1-3.7c-2.5-2.4-3.7-6.1-3.7-10.9V19.3h9.1v16.9c0,5.4,2.3,8.1,6.8,8.1c2.3,0,4.2-0.8,5.6-2.3
			c1.4-1.5,2.1-3.8,2.1-6.7v-16L142.6,19.3L142.6,19.3z"/>
		<path class="st0" d="M189.8,40.3l7,3.8c-1.1,2.5-3,4.4-5.5,5.8c-2.5,1.4-5.5,2.2-8.9,2.2s-6.6-0.7-9.3-2.1
			c-2.7-1.4-4.9-3.4-6.4-5.9c-1.5-2.5-2.3-5.4-2.3-8.6s0.8-6.1,2.3-8.6c1.5-2.5,3.7-4.5,6.4-5.9c2.7-1.4,5.9-2.1,9.3-2.1
			s6.4,0.7,8.9,2.1c2.5,1.4,4.3,3.4,5.5,5.9l-7,3.8c-1.7-3-4.2-4.4-7.4-4.4c-2.5,0-4.6,0.8-6.3,2.5c-1.6,1.6-2.5,3.9-2.5,6.8
			s0.8,5.1,2.5,6.8s3.8,2.5,6.3,2.5C185.6,44.7,188.1,43.2,189.8,40.3z"/>
		<polygon class="st0" points="236,51.6 225.1,51.6 214.8,38.9 214.6,38.7 214.5,38.9 209.9,43.4 209.9,43.4 209.9,51.6 200.8,51.6 
			200.8,6.9 209.9,6.9 209.9,32.7 210.2,32.4 224,19.3 234.8,19.3 221.5,32.8 221.3,33 221.4,33.1 		"/>
		<path class="st0" d="M268.6,26.9c-1.5-2.5-3.6-4.5-6.3-5.9c-2.7-1.4-5.8-2.1-9.1-2.1s-6.5,0.7-9.2,2.1c-2.7,1.4-4.8,3.4-6.3,5.9
			s-2.3,5.4-2.3,8.6s0.8,6.1,2.3,8.6c1.5,2.5,3.6,4.5,6.3,5.9c2.7,1.4,5.8,2.1,9.2,2.1s6.5-0.7,9.1-2.1c2.7-1.4,4.8-3.4,6.3-5.9
			c1.5-2.5,2.3-5.4,2.3-8.6S270.1,29.4,268.6,26.9z M259.3,42.2c-1.6,1.7-3.7,2.5-6.1,2.5s-4.6-0.8-6.2-2.5
			c-1.6-1.7-2.4-3.9-2.4-6.7s0.8-5.1,2.4-6.7c1.6-1.7,3.7-2.5,6.2-2.5s4.5,0.9,6.1,2.5c1.6,1.7,2.4,3.9,2.4,6.7
			S260.9,40.5,259.3,42.2z"/>
		<rect x="150.2" y="19.3" class="st0" width="9.1" height="32.3"/>
		<path class="st0" d="M160.4,9.1c0,1.5-0.5,2.8-1.6,3.8s-2.4,1.5-4.1,1.5s-3.1-0.5-4.1-1.5c-1.1-1-1.6-2.2-1.6-3.6s0.5-2.7,1.6-3.6
			c1.1-1,2.4-1.5,4.1-1.5s3.1,0.5,4.1,1.4C159.9,6.5,160.4,7.7,160.4,9.1L160.4,9.1z"/>
	</g>
</g>
</svg>
