<?xml version="1.0" encoding="UTF-8"?>
<svg xmlns="http://www.w3.org/2000/svg" xmlns:xlink="http://www.w3.org/1999/xlink" id="Ebene_1" viewBox="0 0 636 229">
  <defs>
    <style>.cls-1{fill:#ecb4ad;}.cls-2{fill:#fff;}.cls-3{fill:#7f516c;}.cls-4{fill:#c38f95;}.cls-5{fill:#c1c5ec;}.cls-6{fill:#1d90c7;}.cls-7{fill:#1c8fc7;}.cls-8{fill:#4d58a2;}.cls-9{fill:url(#Unbenannter_Verlauf_19);}.cls-10{fill:url(#Unbenannter_Verlauf_10);}</style>
    <linearGradient id="Unbenannter_Verlauf_10" x1="530.84" y1="206.11" x2="530.84" y2="177.64" gradientUnits="userSpaceOnUse">
      <stop offset=".15" stop-color="#fff" stop-opacity="0"></stop>
      <stop offset=".89" stop-color="#4d58a2"></stop>
    </linearGradient>
    <linearGradient id="Unbenannter_Verlauf_19" x1="508.77" y1="45.01" x2="557.99" y2="154.43" gradientUnits="userSpaceOnUse">
      <stop offset="0" stop-color="#f3cbcb"></stop>
      <stop offset=".04" stop-color="#f2cac9"></stop>
      <stop offset=".62" stop-color="#edb9b4"></stop>
      <stop offset="1" stop-color="#ecb4ad"></stop>
    </linearGradient>
  </defs>
  <g>
    <path class="cls-6" d="M143.62,158.29c-2.76-1.52-5.07-3.56-6.9-6.06-3.97,5.13-8.89,9.5-14.51,12.85-5.18,3.55-10.73,6.14-16.67,7.74-8.6,2.31-17.26,2.41-25.99,.32-8.73-2.09-16.68-6.31-23.84-12.65-7.73-6.83-13.1-14.82-16.1-23.95-3.01-9.13-3.49-18.46-1.44-27.99,2.05-9.53,6.53-18.2,13.45-26.02,6.92-7.82,14.96-13.3,24.13-16.45,9.17-3.14,18.45-3.75,27.83-1.83,9.39,1.92,17.95,6.3,25.67,13.14,7.16,6.34,12.34,13.69,15.52,22.05,2.02,5.29,3.15,10.69,3.41,16.18h0c1.79-.82,4.08-1.39,6.62-1.56,2.49-.17,4.81,.08,6.67,.63-.03-.94-.08-1.88-.15-2.82-.39-.32-.77-.65-1.13-1-3.17-3.11-4.75-7.73-4.75-13.86v-7.71c-3.88-8.34-9.51-15.8-16.93-22.37-9.52-8.42-20.12-13.76-31.8-16.04-11.68-2.27-23.17-1.39-34.47,2.64-11.3,4.03-21.28,10.95-29.96,20.74-8.67,9.8-14.34,20.62-17,32.45-2.66,11.84-2.16,23.37,1.51,34.6,3.67,11.23,10.27,21.05,19.78,29.47,8.95,7.92,18.85,13.11,29.7,15.57,10.85,2.46,21.68,2.13,32.5-.98,10.82-3.11,20.56-8.81,29.24-17.09l18.52,16.38,9.13-10.32-15.46-13.68c-2.34-.47-4.54-1.26-6.58-2.39"></path>
    <g>
      <g>
        <path class="cls-8" d="M83.46,111.66c1.03,0,2.03-.16,3-.47l-.27-4.82c-.45,.23-.93,.34-1.45,.34-.63,0-1.12-.18-1.47-.54-.35-.36-.52-.88-.52-1.55v-18.28h-6.41v18.61c0,2.16,.62,3.82,1.87,4.97,1.25,1.16,3,1.74,5.24,1.74Z"></path>
        <path class="cls-8" d="M99.44,111.09c.94-.38,1.75-.94,2.43-1.69v1.96h6.1v-18.27h-6.41v8.8c0,1.46-.32,2.54-.96,3.25-.64,.71-1.47,1.06-2.48,1.06s-1.74-.31-2.26-.94c-.52-.63-.78-1.63-.78-3v-9.17h-6.41v10.22c0,2.79,.7,4.88,2.11,6.27,1.41,1.39,3.29,2.09,5.65,2.09,1.06,0,2.06-.19,3-.57Z"></path>
        <path class="cls-8" d="M118.19,109.54c1.19,1.42,2.99,2.13,5.39,2.13,1.66,0,3.17-.39,4.54-1.16,1.36-.78,2.44-1.88,3.24-3.32,.8-1.44,1.2-3.1,1.2-4.99s-.4-3.55-1.2-4.97c-.8-1.43-1.88-2.52-3.24-3.29-1.36-.76-2.87-1.15-4.54-1.15-2.16,0-3.85,.63-5.09,1.89v-8.33h-6.41v25.02h6.1v-1.82Zm1.28-10.52c.72-.76,1.64-1.15,2.76-1.15s2.05,.38,2.76,1.15,1.08,1.82,1.08,3.17-.36,2.44-1.08,3.22c-.72,.78-1.64,1.16-2.76,1.16s-2.05-.39-2.76-1.16c-.72-.78-1.08-1.85-1.08-3.22s.36-2.41,1.08-3.17Z"></path>
        <path class="cls-8" d="M87.89,120.04h-7.08c-.21,0-.42-.07-.58-.2l-.69-.54c-.17-.13-.37-.2-.58-.2h-2.54c-.52,0-.94,.42-.94,.94v2.61h-14.54v-11.02c.83,.14,1.7,.21,2.6,.21,2.16,0,4.1-.38,5.83-1.15,1.73-.76,3.17-1.87,4.32-3.3l-4.25-3.84c-1.53,1.84-3.38,2.76-5.56,2.76-1.28,0-2.42-.28-3.42-.84-1-.56-1.78-1.35-2.33-2.38-.55-1.02-.83-2.2-.83-3.52s.28-2.5,.83-3.52c.55-1.02,1.33-1.81,2.33-2.38,1-.56,2.14-.84,3.42-.84,2.18,0,4.04,.92,5.56,2.76l4.25-3.84c-1.15-1.44-2.59-2.54-4.32-3.3-1.73-.76-3.68-1.15-5.83-1.15-2.47,0-4.69,.52-6.66,1.57-1.97,1.05-3.51,2.5-4.64,4.37-1.12,1.87-1.68,3.98-1.68,6.34s.56,4.47,1.68,6.34c1.12,1.87,2.67,3.32,4.64,4.37,.69,.36,1.41,.66,2.15,.9v39.61h16.45v2.79c0,.52,.42,.94,.94,.94h11.48c.52,0,.94-.42,.94-.94v-7.02c0-.52-.42-.94-.94-.94h-7.08c-.21,0-.42-.07-.58-.2l-.69-.54c-.17-.13-.37-.2-.58-.2h-2.54c-.52,0-.94,.42-.94,.94v2.74h-14.54v-10.42h14.54v2.72c0,.52,.42,.94,.94,.94h11.48c.52,0,.94-.42,.94-.94v-7.02c0-.52-.42-.94-.94-.94h-7.08c-.21,0-.42-.07-.58-.2l-.69-.54c-.17-.13-.37-.2-.58-.2h-2.54c-.52,0-.94,.42-.94,.94v2.81h-14.54v-10.42h14.54v2.93c0,.52,.42,.94,.94,.94h11.48c.52,0,.94-.42,.94-.94v-7.02c0-.52-.42-.94-.94-.94Z"></path>
      </g>
      <g>
        <path class="cls-8" d="M117.98,119.99c-2.68,0-5.13,.5-7.34,1.5-2.21,1-4.02,2.39-5.42,4.18-1.15-1.87-2.71-3.28-4.69-4.24-1.98-.96-4.24-1.43-6.79-1.43-.91,0-1.78,.08-2.62,.2v6.81c.24-.01,.46-.06,.71-.06,2.46,0,4.36,.76,5.68,2.27,1.32,1.51,1.98,3.75,1.98,6.73v18.5h7.97v-17.29c0-3.27,.81-5.79,2.43-7.56,1.62-1.76,3.76-2.65,6.44-2.65,2.46,0,4.36,.76,5.68,2.27,1.32,1.51,1.98,3.75,1.98,6.73v18.5h.24c3.18-2.03,5.89-4.64,7.74-6.82v-12.7c0-4.98-1.25-8.71-3.76-11.2-2.51-2.49-5.91-3.73-10.21-3.73Z"></path>
        <path class="cls-8" d="M201.52,120.92c-2.45,0-4.64,.39-6.59,1.18-1.95,.79-3.57,1.95-4.85,3.48v-4.29h-7.4v33.19h7.77v-16.78c0-3.23,.83-5.71,2.49-7.43,1.66-1.72,3.92-2.58,6.77-2.58,2.53,0,4.47,.74,5.84,2.21,1.37,1.47,2.05,3.66,2.05,6.56v18.02h7.77v-19.02c0-4.81-1.26-8.43-3.79-10.88s-5.88-3.67-10.07-3.67Z"></path>
        <path class="cls-8" d="M165.97,125.33c-1.33-1.45-2.89-2.55-4.69-3.29-1.8-.75-3.78-1.12-5.94-1.12-3.23,0-6.12,.7-8.67,2.11-2.55,1.41-4.54,3.39-5.97,5.94-1.43,2.55-2.14,5.52-2.14,8.92s.72,6.38,2.14,8.95c1.43,2.57,3.42,4.56,5.97,5.97,2.55,1.41,5.44,2.11,8.67,2.11,2.28,0,4.36-.39,6.25-1.18,1.88-.79,3.47-1.97,4.75-3.54v4.29h7.4v-33.19h-7.77v4.04Zm-2.67,20.08c-1.86,1.91-4.23,2.86-7.09,2.86s-5.21-.95-7.05-2.86c-1.84-1.9-2.77-4.41-2.77-7.52s.92-5.61,2.77-7.52c1.84-1.91,4.2-2.86,7.05-2.86s5.22,.95,7.09,2.86c1.87,1.91,2.8,4.41,2.8,7.52s-.93,5.62-2.8,7.52Z"></path>
        <path class="cls-8" d="M249,125.33c-1.33-1.45-2.89-2.55-4.69-3.29-1.8-.75-3.78-1.12-5.94-1.12-3.23,0-6.12,.7-8.67,2.11-2.55,1.41-4.54,3.39-5.97,5.94-1.43,2.55-2.14,5.52-2.14,8.92s.72,6.38,2.14,8.95,3.42,4.56,5.97,5.97c2.55,1.41,5.44,2.11,8.67,2.11,2.28,0,4.36-.39,6.25-1.18,1.88-.79,3.47-1.97,4.75-3.54v4.29h7.4v-33.19h-7.77v4.04Zm-2.67,20.08c-1.87,1.91-4.23,2.86-7.09,2.86s-5.21-.95-7.05-2.86c-1.84-1.9-2.77-4.41-2.77-7.52s.92-5.61,2.77-7.52c1.84-1.91,4.2-2.86,7.05-2.86s5.22,.95,7.09,2.86c1.86,1.91,2.8,4.41,2.8,7.52s-.93,5.62-2.8,7.52Z"></path>
        <path class="cls-8" d="M291.27,125.71c-1.33-1.62-2.97-2.82-4.94-3.61-1.97-.79-4.16-1.18-6.56-1.18-3.15,0-6,.66-8.55,1.99-2.55,1.33-4.56,3.2-6.03,5.62-1.47,2.42-2.21,5.21-2.21,8.36s.74,5.95,2.21,8.39c1.47,2.44,3.48,4.34,6.03,5.69,2.55,1.35,5.4,2.02,8.55,2.02,2.28,0,4.37-.37,6.28-1.12,1.9-.75,3.52-1.84,4.85-3.29v1.74c0,3.4-.85,5.93-2.55,7.58-1.7,1.66-4.37,2.49-8.02,2.49-2.28,0-4.53-.36-6.74-1.09-2.22-.73-4.05-1.69-5.5-2.89l-3.48,5.84c1.87,1.53,4.23,2.7,7.09,3.51,2.86,.81,5.88,1.21,9.07,1.21,11.93,0,17.9-5.84,17.9-17.53v-28.16h-7.4v4.41Zm-3.08,18.06c-1.89,1.76-4.3,2.64-7.24,2.64s-5.42-.88-7.3-2.64c-1.89-1.76-2.83-4.05-2.83-6.87s.94-5.03,2.83-6.77c1.88-1.74,4.32-2.61,7.3-2.61s5.35,.87,7.24,2.61c1.89,1.74,2.83,4,2.83,6.77s-.94,5.11-2.83,6.87Z"></path>
        <path class="cls-8" d="M336.51,128.72c-1.49-2.51-3.51-4.43-6.06-5.78-2.55-1.35-5.38-2.02-8.48-2.02-3.27,0-6.21,.73-8.8,2.18-2.59,1.45-4.62,3.47-6.09,6.06-1.47,2.59-2.21,5.5-2.21,8.73s.76,6.21,2.27,8.79c1.51,2.59,3.66,4.61,6.43,6.06,2.78,1.45,5.99,2.18,9.63,2.18,2.86,0,5.43-.46,7.71-1.37s4.14-2.26,5.59-4.04l-4.1-4.79c-2.4,2.4-5.41,3.6-9.01,3.6-2.44,0-4.54-.5-6.28-1.49-1.74-.99-3-2.44-3.79-4.35l25.42-4.97c0-3.36-.75-6.29-2.24-8.79Zm-24.11,8.79v-.06c0-3.15,.88-5.66,2.64-7.52,1.76-1.86,4.07-2.8,6.93-2.8,2.32,0,4.3,.62,5.94,1.86,1.64,1.24,2.72,2.88,3.26,4.91l-18.77,3.6Z"></path>
        <path class="cls-8" d="M352.36,126.14v-4.85h-7.4v33.19h7.77v-16.1c0-3.31,.85-5.85,2.55-7.61,1.7-1.76,4.06-2.64,7.09-2.64,.54,0,1.14,.06,1.8,.19v-7.4c-5.64,0-9.57,1.74-11.81,5.22Z"></path>
      </g>
      <path class="cls-6" d="M203.23,73.98v40.71h-10.83v-5.31l-.44,.49c-1.55,1.75-3.43,3.11-5.58,4.03-2.15,.93-4.52,1.4-7.03,1.4-5.31,0-9.58-1.55-12.68-4.6-3.11-3.05-4.68-7.66-4.68-13.69v-23.03h11.45v21.28c0,6.77,2.9,10.2,8.6,10.2,2.92,0,5.3-.97,7.08-2.87,1.78-1.9,2.67-4.76,2.67-8.49v-20.12h11.45Z"></path>
      <path class="cls-6" d="M262.56,100.43l8.84,4.82c-1.45,3.1-3.77,5.57-6.87,7.33-3.19,1.81-6.98,2.72-11.25,2.72s-8.27-.91-11.72-2.68c-3.44-1.79-6.16-4.29-8.1-7.46-1.93-3.16-2.91-6.8-2.91-10.82s.98-7.67,2.91-10.83c1.94-3.16,4.66-5.67,8.1-7.45,3.45-1.78,7.39-2.68,11.72-2.68s8.06,.91,11.25,2.68c3.11,1.74,5.43,4.24,6.89,7.44l-8.85,4.76c-2.18-3.71-5.33-5.59-9.36-5.59-3.17,0-5.84,1.06-7.92,3.15-2.08,2.08-3.14,4.95-3.14,8.52s1.06,6.45,3.14,8.53c2.08,2.08,4.75,3.14,7.92,3.14,4.08,0,7.23-1.88,9.36-5.58"></path>
    </g>
    <polygon class="cls-6" points="320.83 114.7 307.01 114.7 294.06 98.63 293.89 98.41 293.68 98.6 287.94 104.27 287.87 104.34 287.87 114.7 276.42 114.7 276.42 58.37 287.87 58.37 287.87 90.87 288.3 90.47 305.69 73.98 319.22 73.98 302.49 91.02 302.34 91.18 302.47 91.36 320.83 114.7"></polygon>
    <path class="cls-6" d="M350.15,102.82c-2.01,2.12-4.61,3.19-7.73,3.19s-5.73-1.07-7.76-3.19c-2.03-2.1-3.06-4.96-3.06-8.48s1.03-6.38,3.06-8.49c2.03-2.12,4.63-3.19,7.76-3.19s5.72,1.07,7.73,3.19c2,2.1,3.01,4.96,3.01,8.49s-1.01,6.37-3.01,8.48m11.74-19.31c-1.9-3.16-4.58-5.67-7.95-7.45-3.36-1.78-7.24-2.68-11.52-2.68s-8.16,.91-11.56,2.68c-3.39,1.79-6.08,4.29-7.98,7.45s-2.87,6.8-2.87,10.83,.97,7.66,2.87,10.82c1.91,3.16,4.6,5.67,7.98,7.46,3.39,1.78,7.28,2.68,11.56,2.68s8.16-.91,11.52-2.68c3.36-1.79,6.04-4.29,7.95-7.46,1.91-3.16,2.87-6.8,2.87-10.82s-.96-7.67-2.87-10.83"></path>
    <rect class="cls-6" x="212.7" y="73.98" width="11.45" height="40.71"></rect>
    <path class="cls-6" d="M225.6,61.1c0,1.91-.67,3.51-1.99,4.76-1.32,1.25-3.06,1.88-5.19,1.88s-3.87-.62-5.19-1.84c-1.32-1.22-1.99-2.76-1.99-4.57s.67-3.34,1.99-4.56c1.32-1.23,3.07-1.85,5.19-1.85s3.87,.59,5.2,1.78c1.31,1.17,1.98,2.66,1.98,4.41"></path>
  </g>
  <g>
    <ellipse class="cls-10" cx="530.84" cy="194.35" rx="58.01" ry="7.73"></ellipse>
    <ellipse class="cls-1" cx="500.65" cy="152.05" rx="10.04" ry="9.75"></ellipse>
    <ellipse class="cls-1" cx="554.08" cy="161.25" rx="10.04" ry="9.75"></ellipse>
    <ellipse class="cls-9" cx="530.4" cy="93.1" rx="59.99" ry="51.47"></ellipse>
    <path class="cls-6" d="M512.7,90.14c-10.82,.86-23.9,1.74-34.67,1.93-10.64,.89-20.14-7.48-20.34-18.13-.01-1.07-.09-4.09-.1-5.21-.09-4.4-.33-16.29-.42-20.84-.01-1.11-.1-4.13-.11-5.21-.49-6.49,2.74-13.09,8.37-16.39,2.48-1.47,5.31-2.3,8.15-2.43,9.26-.31,18.51-.74,27.75-1.2,1.37-.05,7.58-.48,8.85-.45,7.94-.11,15.21,5.93,16.67,13.81,.37,2.11,.5,5.15,.72,7.3,.37,4.39,1.44,16.23,1.86,20.77,.09,1.11,.38,4.11,.47,5.19,1.42,10.45-6.66,20.2-17.19,20.86h0Zm-.54-10.38c4.8,0,8.87-4.33,8.73-9.13-.03-1.54-.07-4.5-.09-6.08-.07-4.61-.23-16.39-.32-20.85-.03-1.11-.07-4.13-.11-5.21,.05-5.48-4.75-10.32-10.24-10.3-.93,0-7.41,.31-8.49,.37-9.25,.5-18.49,1.04-27.73,1.7-4.43,.29-8.33,3.66-9.27,7.97-.29,1.32-.24,2.73-.1,4.07,.09,1.07,.33,4.08,.43,5.19,.39,4.59,1.38,16.33,1.76,20.77,.11,1.1,.34,4.12,.44,5.19,.29,3.38,2.61,6.5,5.75,7.55,1.44,.58,3.04,.6,4.56,.45,0,0,6.93-.5,6.93-.5,8.02-.61,19.6-1,27.76-1.19h0Z"></path>
    <path class="cls-6" d="M584.44,92.2c-11.49-.34-23.2-1.09-34.66-2.09-10.61-.28-19.17-9.71-18.15-20.26,.1-1.06,.36-4.08,.47-5.19,.4-4.38,1.46-16.22,1.86-20.76,.11-1.11,.35-4.11,.46-5.19,.22-6.53,4.17-12.79,10.18-15.45,2.63-1.22,5.58-1.74,8.44-1.55,9.23,.7,18.47,1.32,27.72,1.85,1.37,.1,7.59,.39,8.86,.54,8.02,.77,14.69,7.73,15.22,15.83,.13,2.16-.08,5.19-.12,7.37-.13,4.4-.45,16.28-.57,20.84-.04,1.11-.1,4.13-.14,5.21,.2,10.59-8.99,19.4-19.57,18.85h0Zm.64-10.51c4.72,.52,9.19-3.3,9.56-8.04,.13-1.54,.42-4.48,.57-6.05,.43-4.59,1.55-16.32,1.95-20.75,.09-1.1,.38-4.11,.47-5.19,.64-5.26-3.45-10.53-8.8-11.13-7.24-.59-15.1-1-22.33-1.4-4.62-.27-9.25-.5-13.87-.7-3.49-.15-6.96,1.56-8.86,4.48-1.29,1.85-1.74,4.05-1.73,6.27-.03,1.07-.14,4.09-.17,5.21-.15,4.61-.52,16.38-.66,20.83-.02,1.11-.14,4.13-.16,5.21-.1,3.4,1.85,6.77,4.86,8.19,1.38,.73,2.97,.93,4.5,.96,0,0,6.94,.29,6.94,.29,9.26,.31,18.49,1.04,27.72,1.82h0Z"></path>
    <rect class="cls-8" x="507.33" y="65.05" width="7.1" height="12.78" rx="3.55" ry="3.55"></rect>
    <rect class="cls-8" x="544.25" y="65.76" width="7.1" height="12.78" rx="3.55" ry="3.55"></rect>
    <path class="cls-8" d="M534.02,159.7h-7.59c-1.95,0-3.66-.98-4.18-2.4l-1.9-5.24c-.75-2.07,1.32-4.11,4.18-4.11h11.39c2.85,0,4.93,2.04,4.18,4.11l-1.9,5.24c-.51,1.42-2.22,2.4-4.18,2.4Z"></path>
    <path class="cls-8" d="M542.28,189.57l-9.6,5.99c-1.44,.9-3.46,.9-4.91,0l-9.6-5.99c-1.11-.69-1.68-1.8-1.51-2.92l6.38-22.18c.25-1.6,1.95-2.8,3.96-2.8h6.44c2.01,0,3.71,1.2,3.96,2.8l6.38,22.18c.17,1.12-.4,2.23-1.51,2.92Z"></path>
    <path class="cls-8" d="M575.11,53.54c-.93,0-1.84-.43-2.43-1.23-.02-.02-1.95-2.64-4.29-4.38-1.93-1.43-4.49-2.21-4.51-2.22-1.58-.47-2.49-2.14-2.02-3.73,.47-1.58,2.13-2.49,3.72-2.03,.36,.11,3.64,1.11,6.39,3.15,3.09,2.3,5.46,5.53,5.56,5.67,.98,1.34,.68,3.22-.66,4.19-.53,.39-1.15,.57-1.76,.57Z"></path>
    <path class="cls-8" d="M487.27,51.32c-.4,0-.8-.08-1.18-.24-1.52-.65-2.22-2.41-1.57-3.93,.15-.35,1.53-3.48,3.88-5.98,2.64-2.8,6.13-4.77,6.28-4.85,1.44-.81,3.27-.3,4.08,1.15s.3,3.27-1.15,4.08c-.02,.01-2.85,1.62-4.86,3.74-1.65,1.74-2.72,4.2-2.73,4.22-.49,1.13-1.6,1.81-2.76,1.81Z"></path>
    <path class="cls-3" d="M515.29,118.17c-.86-.04-.93-1.39-.07-1.4,28.53-.28,36.53-5.28,53.17-16.22,2.8-1.84-8.3,22.06-17.04,24.14-7.88,1.87-18.34-5.72-36.06-6.52Z"></path>
    <g>
      <path class="cls-4" d="M514.91,186.88c-.05,3.59-16.69,3.67-16.08-.23,.76-5.27,15.64-5.1,16.08,.23h0Zm-1.26,0c-.21-2.65-3.87-3.69-6.16-3.78-2.6-.13-7.15,1.04-7.32,3.68,1.82,.73,4.11,.58,6.11,.63,1.94-.13,5.55,.24,7.3-.57,.09-.05,.03-.03,.07,.04h0Z"></path>
      <path class="cls-1" d="M514.85,186.59c0,1.38-15.95,1.38-15.95,0,0-2.33,3.57-4.22,7.97-4.22s7.97,1.89,7.97,4.22Z"></path>
    </g>
    <g>
      <path class="cls-4" d="M561.52,186.88c-.05,3.59-16.69,3.67-16.08-.23,.76-5.27,15.64-5.1,16.08,.23h0Zm-1.26,0c-.21-2.65-3.87-3.69-6.16-3.78-2.6-.13-7.15,1.04-7.32,3.68,1.82,.73,4.11,.58,6.11,.63,1.94-.13,5.55,.24,7.3-.57,.09-.05,.03-.03,.07,.04h0Z"></path>
      <path class="cls-1" d="M561.46,186.59c0,1.38-15.95,1.38-15.95,0,0-2.33,3.57-4.22,7.97-4.22s7.97,1.89,7.97,4.22Z"></path>
    </g>
    <g>
      <path class="cls-7" d="M493.77,116.55l.88,6.72-81.57,10.7c-5.24,.69-9.96,5.41-10.74,10.83l-2.74,18.68-.56,4.04-3.25,22.16c-.14,.98-.19,1.66-.08,2.47-.04-.02-.05-.04-.07-.06-1.35-1.19-2.22-2.81-2.46-4.66l-8.44-64.37c-.55-4.16,2.49-8.12,6.66-8.67l20.56-2.7c1.75-.23,3.45,.23,4.93,1.13l6.08,3.58c1.48,.89,3.17,1.22,4.9,.99l57.25-7.51c4.17-.55,8.1,2.35,8.67,6.66Z"></path>
      <path class="cls-2" d="M505.9,128.78c-.3-.07-.61-.07-.83-.04l-91.11,11.95c-2.28,.3-4.57,2.65-4.94,5.02l-6.56,44.88c-.03,.83,.06,1.49,.53,1.98,.32,.35,.97,.4,1.51,.34l-.03,.02s-6.19,.6-8.74-.76c-.01-.01-.03,0-.03,0h0c-.11-.82-.06-1.5,.08-2.48l3.25-22.16,.56-4.04,2.74-18.68c.78-5.43,5.5-10.15,10.74-10.83l81.11-10.64,.43-.03,11.29,5.48Z"></path>
      <path class="cls-7" d="M507.02,131.07l-5.94,41.25-.5,3.48c-.35,2.5-2.64,4.85-4.92,5.15l-91.16,11.96c-.53,.06-1.19,0-1.51-.34-.47-.49-.56-1.15-.53-1.98l6.56-44.88c.36-2.37,2.66-4.72,4.94-5.02l91.11-11.95c.22-.03,.52-.03,.83,.04,.25,.04,.51,.14,.73,.3,.32,.38,.56,1.17,.4,2Z"></path>
    </g>
    <path class="cls-5" d="M514.43,68.26h0l-2.87,1.01c-.43,.15-.5,.51-.16,.81l2.41,2.12c.34,.3,.62,.17,.62-.28v-3.66Z"></path>
    <path class="cls-5" d="M551.35,69.01h0l-2.87,1.01c-.43,.15-.5,.51-.16,.81l2.41,2.12c.34,.3,.62,.17,.62-.28v-3.66Z"></path>
    <circle class="cls-1" cx="502.54" cy="146.73" r="4.14"></circle>
  </g>
</svg>
