<?xml version="1.0" encoding="utf-8"?>
<!-- Generator: Adobe Illustrator 27.1.1, SVG Export Plug-In . SVG Version: 6.00 Build 0)  -->
<svg version="1.1" id="Ebene_1" xmlns="http://www.w3.org/2000/svg" xmlns:xlink="http://www.w3.org/1999/xlink" x="0px" y="0px"
	 viewBox="0 0 32 32" style="enable-background:new 0 0 32 32;" xml:space="preserve">
<style type="text/css">
	.settlements0{fill:#8C7EBA;}
	.settlements1{fill:#FFFFFF;}
</style>
<g>
	<g id="Ebene_1-2_00000008867608031107133570000003220120504714415270_">
		<g>
			<path class="settlements0" d="M11.4,5L9.7,3.5C9.3,3.2,8.9,3,8.3,3H2.3C1,3,0,4.1,0,5.5l0,0v21C0,27.9,1,29,2.3,29h27.5
				c1.2,0,2.3-1.1,2.3-2.5V8c0-1.4-1-2.5-2.3-2.5h-17C12.3,5.5,11.8,5.3,11.4,5z"/>
		</g>
	</g>
	<g>
		<path class="settlements1" d="M23.1,23.6H8.9c-1.3,0-2.3-1-2.3-2.3v-6c0-1.3,1-2.3,2.3-2.3h14.2c1.3,0,2.3,1,2.3,2.3v6
			C25.4,22.6,24.3,23.6,23.1,23.6z"/>
		<rect x="7.2" y="19" class="settlements0" width="17.7" height="1.8"/>
		<rect x="20.7" y="14.3" class="settlements0" width="3.4" height="2"/>
		<rect x="8" y="21.9" class="settlements0" width="2.4" height="0.7"/>
		<rect x="10.9" y="21.9" class="settlements0" width="2.4" height="0.7"/>
	</g>
</g>
</svg>
