<?xml version="1.0" encoding="utf-8"?>
<!-- Generator: Adobe Illustrator 27.1.1, SVG Export Plug-In . SVG Version: 6.00 Build 0)  -->
<svg version="1.1" id="Ebene_1" xmlns="http://www.w3.org/2000/svg" xmlns:xlink="http://www.w3.org/1999/xlink" x="0px" y="0px"
	 viewBox="0 0 32 32" style="enable-background:new 0 0 32 32;" xml:space="preserve">
<style type="text/css">
	.events0{fill:#77B370;}
	.events1{fill:#FFFFFF;}
</style>
<g>
	<g id="Ebene_1-2_00000096757453926474714450000009497476901608014514_">
		<g>
			<path class="events0" d="M11.4,5L9.7,3.5C9.3,3.2,8.9,3,8.3,3H2.3C1,3,0,4.1,0,5.5l0,0v21C0,27.9,1,29,2.3,29h27.5
				c1.2,0,2.3-1.1,2.3-2.5V8c0-1.4-1-2.5-2.3-2.5h-17C12.3,5.5,11.8,5.3,11.4,5z"/>
		</g>
	</g>
	<path class="events1" d="M24.7,10.5H7.2c-0.7,0-1.3,0.6-1.3,1.3v1.6h20.4V12C26.2,11.2,25.5,10.5,24.7,10.5z"/>
	<path class="events1" d="M24.7,25H7.2c-0.7,0-1.3-0.6-1.3-1.3v-9.2h20.4v9.1C26.2,24.4,25.5,25,24.7,25z"/>
	<g>
		<g>
			<rect x="7.8" y="16" class="events0" width="4.4" height="3.1"/>
			<rect x="7.8" y="20.3" class="events0" width="4.4" height="3.1"/>
		</g>
		<g>
			<rect x="13.8" y="16" class="events0" width="4.4" height="3.1"/>
			<rect x="13.8" y="20.3" class="events0" width="4.4" height="3.1"/>
		</g>
		<g>
			<rect x="19.8" y="16" class="events0" width="4.4" height="3.1"/>
			<rect x="19.8" y="20.3" class="events0" width="4.4" height="3.1"/>
		</g>
	</g>
	<g>
		<g>
			<circle class="events0" cx="21.6" cy="11.8" r="1.2"/>
			<g>
				<path class="events1" d="M21.5,9.1L21.5,9.1c-0.4,0-0.8,0.4-0.8,0.8v2.1c0,0.1,0.1,0.1,0.1,0.1h1.4c0.1,0,0.1-0.1,0.1-0.1v-2
					C22.4,9.5,22,9.1,21.5,9.1z"/>
				<path class="events1" d="M21.5,12.6L21.5,12.6c-0.4,0-0.8-0.4-0.8-0.8v-1.1c0-0.1,0.1-0.1,0.1-0.1h1.4c0.1,0,0.1,0.1,0.1,0.1v1
					C22.4,12.3,22,12.6,21.5,12.6z"/>
			</g>
		</g>
		<g>
			<circle class="events0" cx="10.4" cy="11.8" r="1.2"/>
			<g>
				<path class="events1" d="M10.4,9.1L10.4,9.1c-0.4,0-0.8,0.4-0.8,0.8v2.1c0,0.1,0.1,0.1,0.1,0.1h1.4c0.1,0,0.1-0.1,0.1-0.1v-2
					C11.3,9.5,10.9,9.1,10.4,9.1z"/>
				<path class="events1" d="M10.4,12.6L10.4,12.6c-0.4,0-0.8-0.4-0.8-0.8v-1.1c0-0.1,0.1-0.1,0.1-0.1h1.4c0.1,0,0.1,0.1,0.1,0.1v1
					C11.3,12.3,10.9,12.6,10.4,12.6z"/>
			</g>
		</g>
	</g>
</g>
</svg>
