<?xml version="1.0" encoding="utf-8"?>
<!-- Generator: Adobe Illustrator 27.1.1, SVG Export Plug-In . SVG Version: 6.00 Build 0)  -->
<svg version="1.1" id="Ebene_1" xmlns="http://www.w3.org/2000/svg" xmlns:xlink="http://www.w3.org/1999/xlink" x="0px" y="0px"
	 viewBox="0 0 32 32" style="enable-background:new 0 0 32 32;" xml:space="preserve">
<style type="text/css">
	.statistics0{fill:#F49B5C;}
	.statistics1{fill:#FFFFFF;}
	.statistics2{fill:none;stroke:#FFFFFF;stroke-width:0.5179;stroke-miterlimit:10;}
	.statistics3{fill:#F49B5C;stroke:#FFFFFF;stroke-width:0.7;stroke-miterlimit:10;}
</style>
<g>
	<g id="Ebene_1-2_00000167389232935969946270000012031847678502771884_">
		<g>
			<path class="statistics0" d="M11.4,5L9.7,3.5C9.3,3.2,8.9,3,8.3,3H2.3C1,3,0,4.1,0,5.5l0,0v21C0,27.9,1,29,2.3,29h27.5
				c1.2,0,2.3-1.1,2.3-2.5V8c0-1.4-1-2.5-2.3-2.5h-17C12.3,5.5,11.8,5.3,11.4,5z"/>
		</g>
	</g>
	<g>
		<g>
			<path class="statistics1" d="M24.9,24.7h-1.2c-0.7,0-1.2-0.6-1.2-1.2v-8.3c0-0.7,0.6-1.2,1.2-1.2h1.2c0.7,0,1.2,0.6,1.2,1.2v8.3
				C26.2,24.1,25.6,24.7,24.9,24.7z"/>
			<path class="statistics1" d="M19.4,24.7h-1.2c-0.7,0-1.2-0.6-1.2-1.2v-5.6c0-0.7,0.6-1.2,1.2-1.2h1.2c0.7,0,1.2,0.6,1.2,1.2v5.6
				C20.6,24.1,20.1,24.7,19.4,24.7z"/>
			<path class="statistics1" d="M13.9,24.7h-1.2c-0.7,0-1.2-0.6-1.2-1.2V22c0-0.7,0.6-1.2,1.2-1.2h1.2c0.7,0,1.2,0.6,1.2,1.2v1.5
				C15.1,24.1,14.5,24.7,13.9,24.7z"/>
			<path class="statistics1" d="M8.3,24.7H7.1c-0.7,0-1.2-0.6-1.2-1.2v-3.7c0-0.7,0.6-1.2,1.2-1.2h1.2c0.7,0,1.2,0.6,1.2,1.2v3.7
				C9.6,24.1,9,24.7,8.3,24.7z"/>
		</g>
		<polyline class="statistics2" points="7.6,15.3 13.2,18.1 18.7,13.2 24.2,10.4 		"/>
		<circle class="statistics3" cx="7.6" cy="15.3" r="1.2"/>
		<circle class="statistics3" cx="13.2" cy="17.9" r="1.2"/>
		<circle class="statistics3" cx="18.7" cy="13.1" r="1.2"/>
		<circle class="statistics3" cx="24.2" cy="10.4" r="1.2"/>
	</g>
</g>
</svg>
