<?xml version="1.0" encoding="utf-8"?>
<!-- Generator: Adobe Illustrator 27.1.1, SVG Export Plug-In . SVG Version: 6.00 Build 0)  -->
<svg version="1.1" id="Ebene_1" xmlns="http://www.w3.org/2000/svg" xmlns:xlink="http://www.w3.org/1999/xlink" x="0px" y="0px"
	 viewBox="0 0 32 32" style="enable-background:new 0 0 32 32;" xml:space="preserve">
<style type="text/css">
	.mail0{fill:#018DC6;}
	.mail1{fill:#FFFFFF;}
	.mail2{fill:none;stroke:#018DC6;stroke-width:0.5179;stroke-linecap:round;stroke-linejoin:round;stroke-miterlimit:10;}
	.mail3{fill:none;stroke:#FFFFFF;stroke-width:0.7;stroke-miterlimit:10;}
</style>
<g>
	<g>
		<path class="mail0" d="M11.4,5L9.7,3.5C9.3,3.2,8.9,3,8.3,3H2.3C1,3,0,4.1,0,5.5l0,0v21C0,27.9,1,29,2.3,29h27.5
			c1.2,0,2.3-1.1,2.3-2.5V8c0-1.4-1-2.5-2.3-2.5h-17C12.3,5.5,11.8,5.3,11.4,5z"/>
	</g>
	<g>
		<g>
			<path class="mail1" d="M22,24.3H7.9c-0.6,0-1.1-0.5-1.1-1.1v-6.7c0-0.6,0.5-1.1,1.1-1.1H22c0.6,0,1.1,0.5,1.1,1.1v6.7
				C23.2,23.8,22.6,24.3,22,24.3z"/>
			<g>
				<g>
					<path class="mail0" d="M8,16.1c1.8,0.9,3.7,2,5.4,3c0,0,0.9,0.5,0.9,0.5c0.4,0.3,1,0.6,1.5,0.2c0.6-0.3,2.1-1.2,2.6-1.6
						c1.2-0.7,2.4-1.4,3.6-2.1c0.3-0.2,0.5,0.3,0.3,0.4c-1.6,1.1-3.5,2.3-5.2,3.4c-0.6,0.4-1.3,1-2.1,0.8c-0.6-0.1-1.4-0.7-2-1
						c-1.7-1-3.6-2.1-5.3-3.2C7.5,16.4,7.7,16,8,16.1L8,16.1z"/>
				</g>
				<line class="mail2" x1="11.8" y1="20.6" x2="7.8" y2="23.3"/>
				<line class="mail2" x1="18.2" y1="20.6" x2="22.2" y2="23.3"/>
			</g>
		</g>
		<g>
			<path class="mail3" d="M14.1,12.3h10.2c0.5,0,1,0.4,1,1v6.1c0,0.5-0.4,1-1,1h-0.4"/>
			<path class="mail3" d="M13.6,13.4l-1.6-0.9c-0.1-0.1-0.1-0.3,0-0.3l1.6-0.9c0.1-0.1,0.3,0,0.3,0.2v1.8
				C13.9,13.4,13.7,13.4,13.6,13.4z"/>
		</g>
	</g>
</g>
</svg>
