<?xml version="1.0" encoding="UTF-8"?>
<svg id="Ebene_2" xmlns="http://www.w3.org/2000/svg" viewBox="0 0 65.12 54.13">
    <defs>
        <style>.cm-1{fill:#FFFFFF;}</style>
    </defs>
    <g id="Ebene_1-2">
        <g>
            <path class="cm-1"
                  d="M61.65,29.69c-1.99-1.97-4.69-2.96-8.1-2.96-2.13,0-4.07,.4-5.83,1.19-1.76,.79-3.19,1.9-4.3,3.32-.91-1.49-2.15-2.61-3.72-3.37-1.57-.76-3.37-1.14-5.39-1.14-.72,0-1.41,.06-2.08,.16v5.41c.19-.01,.37-.05,.56-.05,1.96,0,3.46,.6,4.51,1.8,1.05,1.2,1.57,2.98,1.57,5.34v14.69h6.33v-13.73c0-2.6,.64-4.6,1.93-6,1.28-1.4,2.99-2.1,5.12-2.1,1.96,0,3.46,.6,4.51,1.8,1.05,1.2,1.57,2.98,1.57,5.34v14.69h6.33v-15.5c0-3.95-1-6.91-2.99-8.89Z"/>
            <g>
                <path class="cm-1"
                      d="M5.02,19c-1.56-.83-2.79-1.99-3.68-3.47-.89-1.48-1.34-3.16-1.34-5.03s.45-3.55,1.34-5.03S3.46,2.83,5.02,2c1.56-.83,3.32-1.25,5.29-1.25,1.71,0,3.26,.3,4.63,.91,1.37,.61,2.52,1.48,3.43,2.62l-3.37,3.05c-1.21-1.46-2.69-2.2-4.42-2.2-1.02,0-1.92,.22-2.72,.67-.79,.45-1.41,1.08-1.85,1.89-.44,.81-.66,1.75-.66,2.8s.22,1.99,.66,2.8c.44,.81,1.05,1.44,1.85,1.89,.79,.45,1.7,.67,2.72,.67,1.73,0,3.2-.73,4.42-2.2l3.37,3.05c-.91,1.14-2.05,2.02-3.43,2.62-1.37,.61-2.92,.91-4.63,.91-1.96,0-3.73-.42-5.29-1.25Z"/>
                <path class="cm-1"
                      d="M21.97,18.73c-.99-.92-1.49-2.24-1.49-3.95V0h5.09V14.51c0,.54,.14,.95,.42,1.23s.67,.43,1.17,.43c.41,0,.79-.09,1.15-.27l.21,3.83c-.77,.25-1.56,.38-2.38,.38-1.79,0-3.17-.46-4.16-1.38Z"/>
                <path class="cm-1"
                      d="M45.6,5.36v14.51h-4.85v-1.55c-.54,.59-1.18,1.04-1.93,1.34-.75,.3-1.54,.46-2.38,.46-1.87,0-3.37-.55-4.48-1.66s-1.67-2.77-1.67-4.98V5.36h5.09v7.28c0,1.09,.21,1.88,.62,2.38,.41,.5,1.01,.75,1.79,.75s1.46-.28,1.97-.84c.51-.56,.76-1.42,.76-2.58V5.36h5.09Z"/>
                <path class="cm-1"
                      d="M61.59,6.02c1.08,.61,1.94,1.48,2.57,2.61,.63,1.13,.95,2.45,.95,3.95s-.32,2.82-.95,3.96c-.63,1.14-1.49,2.02-2.57,2.64-1.08,.62-2.28,.92-3.6,.92-1.91,0-3.34-.56-4.28-1.69v1.45h-4.85V0h5.09V6.61c.98-1,2.33-1.5,4.04-1.5,1.32,0,2.52,.3,3.6,.91Zm-2.48,9.12c.57-.62,.86-1.47,.86-2.56s-.29-1.91-.86-2.52c-.57-.61-1.3-.91-2.2-.91s-1.62,.3-2.2,.91c-.57,.61-.86,1.45-.86,2.52s.29,1.94,.86,2.56c.57,.62,1.3,.92,2.2,.92s1.62-.31,2.2-.92Z"/>
            </g>
            <path class="cm-1"
                  d="M19.79,33.08c0,.41,.34,.75,.75,.75h9.11c.41,0,.75-.33,.75-.75v-5.58c0-.41-.34-.75-.75-.75h-5.62c-.17,0-.33-.06-.46-.16l-.55-.43c-.13-.1-.29-.16-.46-.16h-2.02c-.41,0-.75,.33-.75,.75v2.07H8.24v-9.81h-1.51V51.16h13.06v2.22c0,.41,.34,.75,.75,.75h9.11c.41,0,.75-.33,.75-.75v-5.58c0-.41-.34-.75-.75-.75h-5.62c-.17,0-.33-.06-.46-.16l-.55-.43c-.13-.1-.29-.16-.46-.16h-2.02c-.41,0-.75,.33-.75,.75v2.18H8.24v-8.27h11.55v2.16c0,.41,.34,.75,.75,.75h9.11c.41,0,.75-.33,.75-.75v-5.58c0-.41-.34-.75-.75-.75h-5.62c-.17,0-.33-.06-.46-.16l-.55-.43c-.13-.1-.29-.16-.46-.16h-2.02c-.41,0-.75,.34-.75,.75v2.23H8.24v-8.27h11.55v2.33Z"/>
        </g>
    </g>
</svg>