<?xml version="1.0" encoding="UTF-8"?>
<svg id="Ebene_2" xmlns="http://www.w3.org/2000/svg" viewBox="-4 0 24 10.03">
    <defs>
        <style>.cm-m-1{fill:#fff;}</style>
    </defs>
    <g id="Ebene_1-2">
        <g>
            <path class="cm-m-1"
                  d="M14.93,1.31c-.71-.7-1.67-1.06-2.89-1.06-.76,0-1.45,.14-2.08,.42-.63,.28-1.14,.68-1.54,1.18-.33-.53-.77-.93-1.33-1.2-.56-.27-1.2-.41-1.92-.41-.26,0-.5,.02-.74,.06v1.93c.07,0,.13-.02,.2-.02,.7,0,1.23,.21,1.61,.64,.37,.43,.56,1.06,.56,1.91v5.24h2.26V5.12c0-.93,.23-1.64,.69-2.14,.46-.5,1.07-.75,1.83-.75,.7,0,1.23,.21,1.61,.64s.56,1.06,.56,1.91v5.24h2.26V4.48c0-1.41-.36-2.47-1.07-3.17Z"/>
            <path class="cm-m-1"
                  d="M1.35,.21l-.19-.15s-.11-.06-.16-.06H.27c-.15,0-.27,.12-.27,.27H0V2.52c0,.15,.12,.27,.27,.27H3.52c.15,0,.27-.12,.27-.27V.53c0-.15-.12-.27-.27-.27H1.51c-.06,0-.12-.02-.16-.06Z"/>
            <path class="cm-m-1"
                  d="M1.35,3.79l-.19-.15s-.11-.06-.16-.06H.27c-.15,0-.27,.12-.27,.27H0v2.26c0,.15,.12,.27,.27,.27H3.52c.15,0,.27-.12,.27-.27v-1.99c0-.15-.12-.27-.27-.27H1.51c-.06,0-.12-.02-.16-.06Z"/>
            <path class="cm-m-1"
                  d="M1.35,7.45l-.19-.15s-.11-.06-.16-.06H.27c-.15,0-.27,.12-.27,.27H0v2.26c0,.15,.12,.27,.27,.27H3.52c.15,0,.27-.12,.27-.27v-1.99c0-.15-.12-.27-.27-.27H1.51c-.06,0-.12-.02-.16-.06Z"/>
        </g>
    </g>
</svg>